<?xml version="1.0" encoding="iso-8859-1"?>
<svg version="1.1"
	xmlns="http://www.w3.org/2000/svg"
	xmlns:xlink="http://www.w3.org/1999/xlink" x="0px" y="0px" viewBox="0 0 60 60" style="enable-background:new 0 0 60 60; fill:currentColor;" xml:space="preserve">
	<g>
		<path d="M0,0.5v59h60v-59H0z M58,57.5H2v-55h56V57.5z"/>
		<path d="M31,48.5h18c0.553,0,1-0.447,1-1s-0.447-1-1-1H31c-0.553,0-1,0.447-1,1S30.447,48.5,31,48.5z"/>
		<path d="M31,41.5h11c0.553,0,1-0.447,1-1s-0.447-1-1-1H31c-0.553,0-1,0.447-1,1S30.447,41.5,31,41.5z"/>
		<path d="M31,34.5h18c0.553,0,1-0.447,1-1s-0.447-1-1-1H31c-0.553,0-1,0.447-1,1S30.447,34.5,31,34.5z"/>
		<path d="M31,27.5h16c0.553,0,1-0.447,1-1s-0.447-1-1-1H31c-0.553,0-1,0.447-1,1S30.447,27.5,31,27.5z"/>
		<path d="M31,20.5h12c0.553,0,1-0.447,1-1s-0.447-1-1-1H31c-0.553,0-1,0.447-1,1S30.447,20.5,31,20.5z"/>
		<path d="M31,13.5h18c0.553,0,1-0.447,1-1s-0.447-1-1-1H31c-0.553,0-1,0.447-1,1S30.447,13.5,31,13.5z"/>
		<path d="M9.707,42.793c-0.391-0.391-1.023-0.391-1.414,0s-0.391,1.023,0,1.414l6.999,6.999c0.092,0.093,0.203,0.166,0.326,0.217
		C15.74,51.474,15.87,51.5,16,51.5s0.26-0.026,0.382-0.077c0.123-0.051,0.234-0.124,0.326-0.217l6.999-6.999
		c0.391-0.391,0.391-1.023,0-1.414s-1.023-0.391-1.414,0L17,48.086V11.914l5.293,5.293C22.488,17.402,22.744,17.5,23,17.5
		s0.512-0.098,0.707-0.293c0.391-0.391,0.391-1.023,0-1.414l-6.999-6.999c-0.092-0.093-0.203-0.166-0.326-0.217
		c-0.244-0.101-0.519-0.101-0.764,0c-0.123,0.051-0.234,0.125-0.326,0.217l-6.999,6.999c-0.391,0.391-0.391,1.023,0,1.414
		C8.488,17.402,8.744,17.5,9,17.5s0.512-0.098,0.707-0.293L15,11.914v36.172L9.707,42.793z"/>
	</g>
</svg>
