<svg xmlns="http://www.w3.org/2000/svg" xmlns:xlink="http://www.w3.org/1999/xlink" version="1.1"
    width="500" height="140" viewBox="0 0 500 140" xml:space="preserve">

    <g transform="matrix(0.5 0 0 0.5 260.04 69.88)" id="47h8VHfgEux_b91A_wXhu"  >
    <path style="stroke: none; stroke-width: 1; stroke-dasharray: none; stroke-linecap: butt; stroke-dashoffset: 0; stroke-linejoin: miter; stroke-miterlimit: 4; fill: rgb(0,0,0); fill-rule: nonzero; opacity: 1;" vector-effect="non-scaling-stroke"  transform=" translate(-980, -539.5)" d="M 974.00001 539.49999 L 974.00001 642.99999 L 980.00001 642.99999 L 986.00001 642.99999 L 986.00001 539.49999 L 986.00001 435.99999 L 980.00001 435.99999 L 974.00001 435.99999 L 974.00001 539.49999 z" stroke-linecap="round" />
    </g>
        <g transform="matrix(0.5 0 0 0.5 385.76 70.54)" id="cWT6hylxfWEzyS80JOdfv"  >
    <path style="stroke: none; stroke-width: 1; stroke-dasharray: none; stroke-linecap: butt; stroke-dashoffset: 0; stroke-linejoin: miter; stroke-miterlimit: 4; fill: rgb(0,0,0); fill-rule: nonzero; opacity: 1;" vector-effect="non-scaling-stroke"  transform=" translate(-1232.54, -540.83)" d="M 1209.00002 438.59999 C 1207.1000199999999 438.79999 1199.90002 439.49998999999997 1193.00002 440.09999 C 1156.90002 443.19999 1120.40002 452.59999 1091.50002 466.39999 C 1046.20002 488.09999 1023.8000199999999 516.89999 1028.1000199999999 547.99999 C 1033.80002 588.99999 1088.4000199999998 624.79999 1165.4000199999998 637.99999 C 1196.0000199999997 643.1999900000001 1240.9000199999998 644.99999 1269.5000199999997 642.09999 C 1335.4000199999998 635.49999 1387.4000199999998 615.7999900000001 1416.5000199999997 586.49999 C 1425.8000199999997 577.1999900000001 1430.3000199999997 570.59999 1434.8000199999997 559.79999 C 1437.2000199999998 554.0999899999999 1437.5000199999997 552.29999 1437.5000199999997 540.99999 C 1437.4000199999998 529.79999 1437.1000199999996 527.79999 1434.7000199999998 521.59999 C 1427.1000199999999 502.49999 1408.6000199999999 484.29999000000004 1382.0000199999997 470.19999000000007 C 1343.0000199999997 449.39999000000006 1287.3000199999997 437.69999000000007 1230.0000199999997 438.19999000000007 C 1220.4000199999998 438.19999000000007 1210.9000199999998 438.4999900000001 1209.0000199999997 438.59999000000005 z M 1283.6000199999999 457.89999 C 1319.1000199999999 462.69999 1347.50002 470.79999 1371.50002 482.79999 C 1411.80002 502.89999 1428.80002 529.49999 1418.40002 555.99999 C 1413.8000200000001 567.79999 1400.3000200000001 582.09999 1384.70002 591.79999 C 1358.10002 608.39999 1317.40002 620.39999 1272.00002 625.19999 C 1255.80002 626.89999 1208.1000199999999 626.79999 1193.00002 625.0999899999999 C 1132.20002 618.29999 1085.70002 600.9999899999999 1060.80002 575.8999899999999 C 1038.6000199999999 553.4999899999999 1038.80002 527.9999899999999 1061.4000199999998 505.3999899999999 C 1065.80002 500.8999899999999 1073.1000199999999 494.8999899999999 1077.5000199999997 491.9999899999999 C 1104.9000199999998 474.09998999999993 1146.6000199999996 461.3999899999999 1194.5000199999997 456.4999899999999 C 1214.1000199999996 454.3999899999999 1263.9000199999998 455.1999899999999 1283.6000199999996 457.8999899999999 z" stroke-linecap="round" />
    </g>
        <g transform="matrix(0.5 0 0 0.5 351.88 70.37)" id="TL4Tc6RBt2P3XPqWakvYH"  >
    <path style="stroke: none; stroke-width: 1; stroke-dasharray: none; stroke-linecap: butt; stroke-dashoffset: 0; stroke-linejoin: miter; stroke-miterlimit: 4; fill: rgb(0,0,0); fill-rule: nonzero; opacity: 1;" vector-effect="non-scaling-stroke"  transform=" translate(-1164.5, -540.49)" d="M 1130.70002 506.69999 C 1130.30002 506.99999 1130.00002 522.59999 1130.00002 541.1999900000001 L 1130.00002 574.99999 L 1138.50002 574.99999 L 1147.00002 574.99999 L 1147.00002 556.1999900000001 L 1147.00002 537.49999 L 1152.80002 546.1999900000001 L 1158.50002 554.99999 L 1164.70002 554.99999 L 1170.90002 554.99999 L 1176.20002 546.79999 L 1181.50002 538.49999 L 1181.80002 556.79999 L 1182.00002 574.99999 L 1190.50002 574.99999 L 1199.00002 574.99999 L 1199.00002 540.49999 L 1199.00002 505.99999 L 1191.1000199999999 505.99999 C 1181.9000199999998 505.99999 1183.4000199999998 504.69999 1172.50002 521.89999 C 1168.70002 527.89999 1165.20002 532.89999 1164.80002 532.89999 C 1164.50002 532.99999 1160.20002 526.89999 1155.4000199999998 519.49999 L 1146.7000199999998 505.99999 L 1139.0000199999997 505.99999 C 1134.8000199999997 505.99999 1131.0000199999997 506.29999000000004 1130.7000199999998 506.69999 z" stroke-linecap="round" />
    </g>
        <g transform="matrix(0.5 0 0 0.5 387.48 70.38)" id="Axukeq53JzCahJEdemvt8"  >
    <path style="stroke: none; stroke-width: 1; stroke-dasharray: none; stroke-linecap: butt; stroke-dashoffset: 0; stroke-linejoin: miter; stroke-miterlimit: 4; fill: rgb(0,0,0); fill-rule: nonzero; opacity: 1;" vector-effect="non-scaling-stroke"  transform=" translate(-1236, -540.5)" d="M 1207.00002 514.49999 L 1207.00002 522.99999 L 1217.50002 522.99999 L 1228.00002 522.99999 L 1228.00002 548.99999 L 1228.00002 574.99999 L 1236.00002 574.99999 L 1244.00002 574.99999 L 1244.00002 548.99999 L 1244.00002 522.99999 L 1254.50002 522.99999 L 1265.00002 522.99999 L 1265.00002 514.49999 L 1265.00002 505.99999 L 1236.00002 505.99999 L 1207.00002 505.99999 L 1207.00002 514.49999 z" stroke-linecap="round" />
    </g>
        <g transform="matrix(0.5 0 0 0.5 421.33 70.35)" id="Wt2qJlYdB9J1V3gPlo_B0"  >
    <path style="stroke: none; stroke-width: 1; stroke-dasharray: none; stroke-linecap: butt; stroke-dashoffset: 0; stroke-linejoin: miter; stroke-miterlimit: 4; fill: rgb(0,0,0); fill-rule: nonzero; opacity: 1;" vector-effect="non-scaling-stroke"  transform=" translate(-1304, -540.45)" d="M 1273.00002 540.49999 L 1273.00002 574.99999 L 1281.00002 574.99999 L 1289.00002 574.99999 L 1289.00002 555.39999 C 1289.00002 544.59999 1289.40002 536.09999 1289.90002 536.39999 C 1290.40002 536.69999 1296.90002 545.49999 1304.40002 555.99999 L 1318.10002 574.99999 L 1326.60002 574.99999 L 1335.0000200000002 574.99999 L 1335.0000200000002 540.49999 L 1335.0000200000002 505.89999 L 1326.8000200000001 506.19999 L 1318.5000200000002 506.49999 L 1318.0000200000002 525.99999 L 1317.5000200000002 545.49999 L 1303.5000200000002 525.99999 L 1289.4000200000003 506.49999 L 1281.2000200000002 506.19999 L 1273.0000200000002 505.89999 L 1273.0000200000002 540.49999 z" stroke-linecap="round" />
    </g>
        <g transform="matrix(0.5 0 0 0.5 123.93 45.82)" id="AC8q289aQt8UKYED6qHBy"  >
    <path style="stroke: none; stroke-width: 1; stroke-dasharray: none; stroke-linecap: butt; stroke-dashoffset: 0; stroke-linejoin: miter; stroke-miterlimit: 4; fill: rgb(0,0,0); fill-rule: nonzero; opacity: 1;" vector-effect="non-scaling-stroke"  transform=" translate(-706.68, -493.05)" d="M 601.60001 445.49999 C 580.10001 449.59999000000005 547.40001 463.79999000000004 509.30001 485.59999000000005 C 485.90001 498.89999000000006 486.90001 498.09999000000005 484.20000999999996 508.49999 C 482.90000999999995 513.29999 482.10000999999994 517.39999 482.30001 517.59999 C 482.50001 517.7999900000001 487.80001 514.7999900000001 494.10001 510.89999000000006 C 524.00001 492.29999000000004 562.20001 471.79999000000004 576.80001 466.59999000000005 C 602.80001 457.29999000000004 623.9000100000001 457.09999000000005 628.60001 466.09999000000005 C 631.70001 472.09999000000005 629.60001 479.89999000000006 619.90001 498.99999 C 602.50001 532.99999 609.00001 544.59999 643.3000099999999 541.09999 C 654.7000099999999 539.89999 660.90001 538.59999 695.00001 530.6999900000001 C 756.00001 516.3999900000001 813.10001 507.09999000000005 853.70001 504.89999000000006 C 873.50001 503.89999000000006 904.4000100000001 504.79999000000004 921.20001 506.9999900000001 C 925.20001 507.4999900000001 929.4000100000001 507.89999000000006 930.50001 507.89999000000006 C 934.40001 507.79999000000004 918.3000099999999 503.9999900000001 904.50001 501.79999000000004 C 892.20001 499.89999000000006 886.60001 499.59999000000005 858.00001 499.49999 C 832.60001 499.49999 822.3000099999999 499.89999 811.00001 501.29999000000004 C 778.90001 505.29999000000004 734.3000099999999 513.39999 697.00001 521.99999 C 674.20001 527.1999900000001 667.10001 528.29999 655.00001 528.29999 C 643.3000099999999 528.39999 636.3000099999999 526.19999 634.00001 521.89999 C 632.00001 518.19999 633.50001 509.39999 637.8000099999999 498.99999 C 646.7000099999999 477.79999000000004 648.2000099999999 466.79999000000004 643.50001 457.39999 C 639.20001 448.79999 632.10001 445.09999 618.00001 444.49999 C 612.90001 444.19999 606.40001 444.59999000000005 601.60001 445.49999 z" stroke-linecap="round" />
    </g>
        <g transform="matrix(0.5 0 0 0.5 117.89 42.72)" id="RBYpAzHHqLAbRsl4x-iJD"  >
    <path style="stroke: none; stroke-width: 1; stroke-dasharray: none; stroke-linecap: butt; stroke-dashoffset: 0; stroke-linejoin: miter; stroke-miterlimit: 4; fill: rgb(0,0,0); fill-rule: nonzero; opacity: 1;" vector-effect="non-scaling-stroke"  transform=" translate(-694.46, -484.95)" d="M 694.50001 467.99999 C 690.10001 473.09999000000005 686.20001 477.69999 685.90001 478.19999 C 685.60001 478.69999 680.2000099999999 480.19999 673.90001 481.59999 C 659.00001 484.99998999999997 658.50001 485.29999 665.10001 487.49998999999997 C 668.10001 488.49998999999997 672.00001 489.89998999999995 673.80001 490.69998999999996 L 677.10001 492.09998999999993 L 672.60001 500.4999899999999 C 670.10001 505.1999899999999 668.40001 508.9999899999999 668.70001 508.9999899999999 C 669.00001 508.9999899999999 673.20001 506.6999899999999 678.00001 503.9999899999999 C 682.8000099999999 501.1999899999999 687.10001 498.9999899999999 687.60001 498.9999899999999 C 688.10001 498.9999899999999 691.20001 501.7999899999999 694.60001 505.09998999999993 L 700.80001 511.19998999999996 L 701.30001 508.39998999999995 C 701.60001 506.7999899999999 702.20001 502.49998999999997 702.5000100000001 498.69998999999996 L 703.2000100000001 491.99998999999997 L 716.6000100000001 487.79999 C 731.0000100000001 483.19998999999996 731.2000100000001 482.69998999999996 719.5000100000001 481.59999 C 715.7000100000001 481.19999 710.4000100000001 480.69999 707.80001 480.39999 L 703.10001 479.79999 L 702.80001 469.29999 L 702.5000100000001 458.69998999999996 L 694.5000100000001 467.99998999999997 z" stroke-linecap="round" />
    </g>
        <g transform="matrix(0.5 0 0 0.5 21.62 103.73)" id="eNn9uatSN_sVx_Az9Ti3b"  >
    <path style="stroke: none; stroke-width: 1; stroke-dasharray: none; stroke-linecap: butt; stroke-dashoffset: 0; stroke-linejoin: miter; stroke-miterlimit: 4; fill: rgb(0,0,0); fill-rule: nonzero; opacity: 1;" vector-effect="non-scaling-stroke"  transform=" translate(-501.09, -607.49)" d="M 486.20001 601.19999 C 481.30001000000004 621.19999 481.10001 623.79999 484.40001 627.69999 L 486.80001 630.4999899999999 L 502.40001 630.7999899999999 C 519.30001 631.1999899999998 518.30001 631.4999899999999 519.4000100000001 625.1999899999998 L 520.0000100000001 621.9999899999998 L 507.2000100000001 621.9999899999998 C 488.90001000000007 621.9999899999998 489.60001000000005 623.2999899999998 495.3000100000001 601.5999899999998 L 499.8000100000001 583.9999899999998 L 495.1000100000001 583.9999899999998 L 490.4000100000001 583.9999899999998 L 486.20001000000013 601.1999899999998 z" stroke-linecap="round" />
    </g>
        <g transform="matrix(0.5 0 0 0.5 184.15 103.78)" id="WRx6ujlZS2CHaBaEDBnsG"  >
    <path style="stroke: none; stroke-width: 1; stroke-dasharray: none; stroke-linecap: butt; stroke-dashoffset: 0; stroke-linejoin: miter; stroke-miterlimit: 4; fill: rgb(0,0,0); fill-rule: nonzero; opacity: 1;" vector-effect="non-scaling-stroke"  transform=" translate(-827.57, -607.59)" d="M 816.50001 584.69999 C 807.60001 586.9999899999999 804.8000099999999 590.79999 800.90001 606.29999 C 797.7000099999999 618.89999 797.3000099999999 623.5999899999999 799.50001 626.5999899999999 C 802.20001 630.5999899999999 805.70001 631.19999 824.3000099999999 630.79999 C 840.3000099999999 630.49999 842.1000099999999 630.29999 844.7000099999999 628.39999 C 847.5000099999999 626.29999 851.3000099999999 619.69999 852.5000099999999 614.69999 C 853.2000099999999 611.9999899999999 853.2000099999999 611.9999899999999 848.3000099999998 611.9999899999999 C 843.6000099999998 611.9999899999999 843.4000099999998 612.0999899999999 842.1000099999998 615.5999899999999 C 840.2000099999998 620.8999899999999 836.6000099999998 621.9999899999999 821.7000099999998 621.9999899999999 C 805.4000099999998 621.9999899999999 805.7000099999998 622.2999899999999 809.3000099999998 608.0999899999999 C 813.0000099999999 593.5999899999999 812.5000099999999 593.8999899999999 831.4000099999998 594.19999 L 846.5000099999999 594.4999899999999 L 846.4000099999998 598.19999 L 846.3000099999998 601.9999899999999 L 851.1000099999998 601.9999899999999 L 855.9000099999997 601.9999899999999 L 856.6000099999998 597.4999899999999 C 858.3000099999998 586.0999899999999 855.7000099999998 584.5999899999999 834.5000099999997 584.2999899999999 C 825.7000099999998 584.1999899999998 817.6000099999998 584.3999899999999 816.5000099999997 584.6999899999998 z" stroke-linecap="round" />
    </g>
        <g transform="matrix(0.5 0 0 0.5 223.94 103.7)" id="WO_n5NR0ukU8YiKuGXspV"  >
    <path style="stroke: none; stroke-width: 1; stroke-dasharray: none; stroke-linecap: butt; stroke-dashoffset: 0; stroke-linejoin: miter; stroke-miterlimit: 4; fill: rgb(0,0,0); fill-rule: nonzero; opacity: 1;" vector-effect="non-scaling-stroke"  transform=" translate(-907.5, -607.43)" d="M 909.50001 585.19999 C 908.40001 588.4999899999999 898.00001 629.0999899999999 898.00001 630.0999899999999 C 898.00001 630.69999 899.60001 630.9999899999999 901.70001 630.79999 L 905.50001 630.49999 L 911.20001 608.99999 C 914.4000100000001 597.1999900000001 917.00001 586.6999900000001 917.00001 585.6999900000001 C 917.00001 584.3999900000001 916.20001 583.99999 913.50001 583.99999 C 911.50001 583.99999 909.8000099999999 584.59999 909.50001 585.1999900000001 z" stroke-linecap="round" />
    </g>
        <g transform="matrix(0.5 0 0 0.5 231.22 103.73)" id="PEOpA2FWPtkrbX3-Bk7WX"  >
    <path style="stroke: none; stroke-width: 1; stroke-dasharray: none; stroke-linecap: butt; stroke-dashoffset: 0; stroke-linejoin: miter; stroke-miterlimit: 4; fill: rgb(0,0,0); fill-rule: nonzero; opacity: 1;" vector-effect="non-scaling-stroke"  transform=" translate(-922.12, -607.49)" d="M 924.70001 584.69999 C 924.4000100000001 585.19999 921.70001 594.89999 918.60001 606.4999899999999 C 915.50001 617.9999899999999 912.70001 628.2999899999999 912.40001 629.19999 C 911.90001 630.69999 912.50001 630.9999899999999 916.2000099999999 630.9999899999999 L 920.6000099999999 630.9999899999999 L 926.3000099999999 608.69999 C 929.50001 596.4999899999999 932.00001 585.89999 932.00001 585.19999 C 932.00001 583.89999 925.40001 583.4999899999999 924.70001 584.69999 z" stroke-linecap="round" />
    </g>
        <g transform="matrix(0.5 0 0 0.5 124.12 104.73)" id="wkzihpInnlCkdRjLQFUzG"  >
    <path style="stroke: none; stroke-width: 1; stroke-dasharray: none; stroke-linecap: butt; stroke-dashoffset: 0; stroke-linejoin: miter; stroke-miterlimit: 4; fill: rgb(0,0,0); fill-rule: nonzero; opacity: 1;" vector-effect="non-scaling-stroke"  transform=" translate(-706.97, -609.5)" d="M 703.50001 589.19999 C 701.8000099999999 594.5999899999999 695.00001 622.29999 695.00001 624.19999 C 695.00001 625.4999899999999 695.90001 627.5999899999999 697.00001 628.79999 C 698.70001 630.5999899999999 700.20001 630.99999 704.90001 630.99999 C 711.2000099999999 630.99999 712.00001 630.29999 712.00001 625.29999 C 712.00001 623.0999899999999 711.70001 622.89999 709.20001 623.39999 C 707.60001 623.79999 705.70001 623.49999 704.60001 622.69999 C 703.00001 621.5999899999999 703.00001 620.89999 703.90001 617.19999 C 704.50001 614.89999 705.50001 611.19999 706.00001 608.9999899999999 L 707.10001 604.9999899999999 L 712.40001 604.9999899999999 C 717.10001 604.9999899999999 717.8000099999999 604.69999 718.40001 602.69999 C 719.50001 598.39999 719.2000099999999 597.9999899999999 714.50001 597.9999899999999 C 709.60001 597.9999899999999 709.50001 597.7999899999999 710.90001 591.69999 L 711.8000099999999 587.9999899999999 L 707.90001 587.9999899999999 C 705.60001 587.9999899999999 703.8000099999999 588.4999899999999 703.50001 589.19999 z" stroke-linecap="round" />
    </g>
        <g transform="matrix(0.5 0 0 0.5 43.47 106.97)" id="OUUPPR34szNTglwxa8pVI"  >
    <path style="stroke: none; stroke-width: 1; stroke-dasharray: none; stroke-linecap: butt; stroke-dashoffset: 0; stroke-linejoin: miter; stroke-miterlimit: 4; fill: rgb(0,0,0); fill-rule: nonzero; opacity: 1;" vector-effect="non-scaling-stroke"  transform=" translate(-544.97, -614)" d="M 534.90001 598.49999 C 531.2000099999999 600.49999 529.00001 604.39999 526.90001 612.39999 C 524.2000099999999 622.59999 524.40001 626.39999 527.60001 628.89999 C 529.90001 630.69999 531.70001 630.99999 541.40001 630.99999 C 550.60001 630.99999 553.00001 630.6999900000001 555.7000099999999 628.99999 C 559.7000099999999 626.59999 560.40001 625.29999 562.90001 615.29999 C 565.7000099999999 604.39999 565.60001 601.5999899999999 562.40001 599.0999899999999 C 560.00001 597.29999 558.40001 596.9999899999999 548.60001 596.9999899999999 C 541.00001 597.0999899999999 536.70001 597.4999899999999 534.90001 598.4999899999999 z M 557.00001 606.99999 C 557.00001 610.59999 554.8000099999999 619.49999 553.40001 621.6999900000001 C 552.10001 623.7999900000001 551.2000099999999 623.99999 543.50001 623.99999 C 532.20001 623.99999 531.60001 623.39999 534.00001 614.09999 C 534.90001 610.2999900000001 536.10001 606.6999900000001 536.40001 606.09999 C 536.90001 605.39999 540.8000099999999 604.99999 547.10001 604.99999 C 556.20001 604.99999 557.00001 605.09999 557.00001 606.99999 z" stroke-linecap="round" />
    </g>
        <g transform="matrix(0.5 0 0 0.5 85.55 106.97)" id="ZVvbw0qAsYr5_0MNL2CP_"  >
    <path style="stroke: none; stroke-width: 1; stroke-dasharray: none; stroke-linecap: butt; stroke-dashoffset: 0; stroke-linejoin: miter; stroke-miterlimit: 4; fill: rgb(0,0,0); fill-rule: nonzero; opacity: 1;" vector-effect="non-scaling-stroke"  transform=" translate(-629.51, -614)" d="M 618.40001 598.39999 C 614.40001 600.19999 614.3000099999999 600.29999 611.40001 610.79999 C 606.3000099999999 629.19999 608.00001 630.99999 629.50001 630.99999 C 639.50001 630.99999 643.20001 630.6999900000001 643.40001 629.6999900000001 C 643.7000099999999 629.09999 644.10001 627.2999900000001 644.40001 625.7999900000001 L 645.00001 623.09999 L 631.3000099999999 622.7999900000001 C 621.50001 622.59999 617.50001 622.1999900000001 617.2000099999999 621.1999900000001 C 616.90001 620.2999900000001 619.5000099999999 619.99999 628.2000099999999 619.99999 C 640.90001 619.99999 644.40001 618.6999900000001 648.0000099999999 612.79999 C 650.7000099999999 608.39999 650.7000099999999 601.69999 648.0000099999999 598.99999 C 646.2000099999999 597.1999900000001 644.7000099999999 596.99999 633.8000099999998 596.99999 C 625.7000099999998 597.09999 620.4000099999998 597.49999 618.4000099999998 598.39999 z M 640.40001 604.59999 C 642.3000099999999 605.2999900000001 642.50001 609.2999900000001 640.7000099999999 610.7999900000001 C 640.0000099999999 611.3999900000001 635.2000099999999 611.9999900000001 630.0000099999999 612.09999 C 620.6000099999999 612.2999900000001 620.5000099999999 612.2999900000001 620.2000099999999 609.7999900000001 C 619.8000099999999 606.09999 621.8000099999999 605.09999 630.5000099999999 604.6999900000001 C 634.9000099999998 604.59999 638.6000099999999 604.2999900000001 638.7000099999999 604.1999900000001 C 638.8000099999999 604.09999 639.5000099999999 604.2999900000001 640.40001 604.59999 z" stroke-linecap="round" />
    </g>
        <g transform="matrix(0.5 0 0 0.5 106.91 106.97)" id="7HRRdeG0kEjfCtVgdft6M"  >
    <path style="stroke: none; stroke-width: 1; stroke-dasharray: none; stroke-linecap: butt; stroke-dashoffset: 0; stroke-linejoin: miter; stroke-miterlimit: 4; fill: rgb(0,0,0); fill-rule: nonzero; opacity: 1;" vector-effect="non-scaling-stroke"  transform=" translate(-672.41, -614)" d="M 660.80001 598.79999 C 657.70001 600.69999 655.0000100000001 605.5999899999999 655.0000100000001 609.29999 C 655.0000100000001 610.5999899999999 655.9000100000001 612.89999 657.1000100000001 614.39999 C 659.1000100000001 616.89999 659.5000100000001 616.99999 669.8000100000002 616.99999 C 681.5000100000002 616.99999 684.2000100000001 617.79999 682.4000100000002 620.6999900000001 C 681.4000100000002 622.2999900000001 679.4000100000002 622.49999 667.1000100000002 622.7999900000001 C 653.0000100000002 623.09999 652.9000100000002 623.09999 652.0000100000002 625.59999 C 649.9000100000002 630.99999 649.8000100000002 630.99999 666.0000100000002 630.99999 C 682.9000100000002 630.99999 685.7000100000002 630.1999900000001 689.0000100000002 624.6999900000001 C 691.6000100000002 620.59999 691.6000100000002 613.8999900000001 689.2000100000002 611.6999900000001 C 687.7000100000002 610.2999900000001 685.2000100000002 609.99999 676.1000100000002 609.99999 C 666.9000100000002 609.99999 664.8000100000003 609.6999900000001 664.3000100000003 608.39999 C 663.2000100000002 605.39999 665.6000100000002 604.79999 678.8000100000003 604.89999 L 691.7000100000002 605.09999 L 692.8000100000003 600.99999 L 693.8000100000003 596.99999 L 678.6000100000002 596.99999 C 666.2000100000002 596.99999 663.0000100000002 597.39999 660.8000100000003 598.79999 z" stroke-linecap="round" />
    </g>
        <g transform="matrix(0.5 0 0 0.5 139.86 106.97)" id="9DTayn9cNFWwWrMEKjGs4"  >
    <path style="stroke: none; stroke-width: 1; stroke-dasharray: none; stroke-linecap: butt; stroke-dashoffset: 0; stroke-linejoin: miter; stroke-miterlimit: 4; fill: rgb(0,0,0); fill-rule: nonzero; opacity: 1;" vector-effect="non-scaling-stroke"  transform=" translate(-738.59, -614)" d="M 727.10001 600.09999 C 726.50001 601.89999 726.00001 603.49999 726.00001 603.59999 C 726.00001 603.7999900000001 731.10001 603.99999 737.40001 603.99999 C 746.2000099999999 603.99999 749.00001 604.29999 750.00001 605.49999 C 751.70001 607.59999 750.60001 607.79999 737.8000099999999 608.1999900000001 C 728.90001 608.49999 726.6000099999999 608.8999900000001 724.40001 610.59999 C 720.2000099999999 613.6999900000001 718.10001 616.99999 717.40001 621.6999900000001 C 716.90001 625.2999900000001 717.10001 626.1999900000001 719.3000099999999 628.3999900000001 C 721.90001 630.9999900000001 722.1000099999999 630.9999900000001 736.8000099999999 630.9999900000001 L 751.7000099999999 630.9999900000001 L 755.8000099999999 617.6999900000002 C 758.1000099999999 610.3999900000002 760.00001 603.5999900000002 760.00001 602.6999900000002 C 760.00001 601.7999900000002 759.10001 600.0999900000002 758.00001 598.9999900000001 C 756.20001 597.1999900000002 754.70001 596.9999900000001 742.10001 596.9999900000001 L 728.20001 596.9999900000001 L 727.10001 600.0999900000002 z M 746.80001 619.99999 L 745.70001 624.09999 L 736.10001 623.7999900000001 C 727.80001 623.4999900000001 726.50001 623.2999900000001 726.20001 621.6999900000001 C 726.00001 620.6999900000001 726.60001 618.99999 727.60001 617.8999900000001 C 729.00001 616.2999900000001 730.70001 615.9999900000001 738.50001 615.9999900000001 L 747.8000099999999 615.9999900000001 L 746.8000099999999 619.9999900000001 z" stroke-linecap="round" />
    </g>
        <g transform="matrix(0.5 0 0 0.5 155.86 106.97)" id="UzbzCDn3Uz-tWG4jldONA"  >
    <path style="stroke: none; stroke-width: 1; stroke-dasharray: none; stroke-linecap: butt; stroke-dashoffset: 0; stroke-linejoin: miter; stroke-miterlimit: 4; fill: rgb(0,0,0); fill-rule: nonzero; opacity: 1;" vector-effect="non-scaling-stroke"  transform=" translate(-770.74, -614)" d="M 771.30001 598.49999 C 766.80001 600.39999 764.60001 604.49999 761.60001 616.89999 C 760.10001 622.69999 758.70001 628.29999 758.40001 629.19999 C 758.00001 630.69999 758.50001 630.9999899999999 761.90001 630.9999899999999 C 765.8000099999999 630.9999899999999 765.90001 630.9999899999999 767.40001 625.69999 C 768.2000099999999 622.89999 769.40001 618.19999 770.10001 615.4999899999999 C 772.10001 606.9999899999999 773.60001 604.9999899999999 777.50001 604.9999899999999 C 781.3000099999999 604.9999899999999 781.50001 604.7999899999999 782.50001 600.19999 L 783.20001 596.9999899999999 L 778.80001 596.9999899999999 C 776.4000100000001 597.0999899999999 773.0000100000001 597.69999 771.30001 598.4999899999999 z" stroke-linecap="round" />
    </g>
        <g transform="matrix(0.5 0 0 0.5 208.63 106.97)" id="ufkO-6gFQando6gpjGc-y"  >
    <path style="stroke: none; stroke-width: 1; stroke-dasharray: none; stroke-linecap: butt; stroke-dashoffset: 0; stroke-linejoin: miter; stroke-miterlimit: 4; fill: rgb(0,0,0); fill-rule: nonzero; opacity: 1;" vector-effect="non-scaling-stroke"  transform=" translate(-876.73, -614)" d="M 865.30001 598.99999 C 861.4000100000001 601.29999 860.20001 603.49999 857.9000100000001 612.49999 C 853.6000100000001 629.09999 855.5000100000001 630.99999 876.30001 630.99999 L 889.70001 630.99999 L 890.70001 627.49999 L 891.80001 623.99999 L 880.20001 623.99999 C 867.30001 623.99999 864.00001 623.39999 864.00001 621.39999 C 864.00001 620.29999 866.20001 619.99999 874.50001 619.99999 C 886.3000099999999 619.99999 890.40001 618.79999 893.8000099999999 614.49999 C 896.90001 610.59999 898.3000099999999 604.79999 896.90001 601.6999900000001 C 895.2000099999999 597.8999900000001 891.90001 596.99999 879.7000099999999 596.99999 C 870.40001 596.99999 868.0000099999999 597.29999 865.3000099999999 598.99999 z M 888.80001 607.6999900000001 C 888.4000100000001 611.59999 884.9000100000001 612.99999 875.30001 612.99999 C 866.9000100000001 612.99999 866.4000100000001 612.79999 867.0000100000001 608.99999 C 867.5000100000001 605.59999 869.2000100000001 604.99999 879.2000100000001 604.99999 L 889.1000100000001 604.99999 L 888.8000100000002 607.6999900000001 z" stroke-linecap="round" />
    </g>
        <g transform="matrix(0.5 0 0 0.5 64.09 107.22)" id="ohcBr5-UgrZiApcPt-wky"  >
    <path style="stroke: none; stroke-width: 1; stroke-dasharray: none; stroke-linecap: butt; stroke-dashoffset: 0; stroke-linejoin: miter; stroke-miterlimit: 4; fill: rgb(0,0,0); fill-rule: nonzero; opacity: 1;" vector-effect="non-scaling-stroke"  transform=" translate(-586.4, -614.5)" d="M 577.20001 599.29999 C 573.4000100000001 601.39999 572.10001 604.39999 569.00001 617.39999 C 567.3000099999999 624.29999 566.00001 630.09999 566.00001 630.39999 C 566.00001 630.79999 567.70001 630.99999 569.90001 630.99999 L 573.8000099999999 630.99999 L 576.40001 620.1999900000001 C 580.2000099999999 605.1999900000001 580.40001 604.99999 589.50001 604.99999 C 593.50001 604.99999 597.10001 605.39999 597.50001 605.99999 C 597.8000099999999 606.49999 596.70001 611.99999 595.00001 618.1999900000001 C 593.40001 624.3999900000001 592.00001 629.8999900000001 592.00001 630.2999900000001 C 592.00001 630.7999900000001 593.90001 630.9999900000001 596.20001 630.7999900000001 L 600.30001 630.4999900000001 L 603.60001 617.9999900000001 C 607.50001 603.4999900000001 607.60001 601.8999900000001 605.20001 599.6999900000002 C 603.70001 598.2999900000002 601.10001 597.9999900000001 591.4000100000001 597.9999900000001 C 583.80001 598.0999900000002 578.70001 598.4999900000001 577.20001 599.2999900000001 z" stroke-linecap="round" />
    </g>
    </svg>